<svg version="1.1" xmlns="http://www.w3.org/2000/svg" xmlns:xlink="http://www.w3.org/1999/xlink" width="122.88px" height="107.76px" viewBox="0,0,256,224.5"><g fill="#ffffff" fill-rule="evenodd" stroke="none" stroke-width="1" stroke-linecap="butt" stroke-linejoin="miter" stroke-miterlimit="10" stroke-dasharray="" stroke-dashoffset="0" font-family="none" font-weight="none" font-size="none" text-anchor="none" style="mix-blend-mode: normal"><g transform="translate(0.01042,0.02083) scale(2.08333,2.08333)"><g><path d="M21.13,83.86h80.25l12.54,-34.73c0.65,0.21 1.35,0.32 2.07,0.32c3.8,0 6.89,-3.08 6.89,-6.89c0,-3.8 -3.08,-6.89 -6.89,-6.89c-3.8,0 -6.89,3.08 -6.89,6.89c0,1.5 0.48,2.88 1.29,4.01l-7.12,5.86c-9.97,8.2 -16.22,4.4 -14.27,-8.34l1.1,-7.17c0.38,0.07 0.78,0.1 1.18,0.1c3.8,0 6.89,-3.08 6.89,-6.89c0,-3.8 -3.08,-6.89 -6.89,-6.89c-3.8,0 -6.89,3.08 -6.89,6.89c0,2.17 1.01,4.11 2.58,5.37l-1.71,2.7c-8.38,12.58 -14.56,7.76 -17.03,-4.67l-4.41,-20.31c2.47,-1.05 4.21,-3.49 4.21,-6.35c0,-3.8 -3.08,-6.89 -6.89,-6.89c-3.8,0 -6.89,3.08 -6.89,6.89c0,3.18 2.15,5.85 5.07,6.65l-2.86,11.58c-2.48,10.61 -5.45,31.75 -18.88,13.73l-2.19,-2.98c1.73,-1.25 2.86,-3.29 2.86,-5.59c0,-3.8 -3.08,-6.89 -6.89,-6.89c-3.8,0 -6.89,3.08 -6.89,6.89c0,3.8 3.08,6.89 6.89,6.89c0.53,0 1.05,-0.06 1.55,-0.18l0.46,4.68c0.9,6.39 2.05,15.04 -5.29,14.63c-3.64,-0.2 -5.01,-1.44 -7.79,-3.42l-7.94,-5.63c0.89,-1.16 1.42,-2.61 1.42,-4.19c0,-3.8 -3.08,-6.89 -6.89,-6.89c-3.8,0 -6.89,3.08 -6.89,6.89c0,3.81 3.08,6.89 6.89,6.89c0.9,0 1.75,-0.17 2.54,-0.48l11.71,34.41zM21.07,93.47h80.51v14.29h-80.51v-14.29z"></path></g></g></g></svg>